<svg xmlns="http://www.w3.org/2000/svg" viewBox="0 0 50 50" width="30px" height="30px">
  <path d="M 29.625 2 C 22.394531 2 18.871094 5.601563 17.734375 9.75 C 16.769531 8.769531 15.304688 8 13.167969 8 C 9.601563 8 6 10.085938 6 14.75 C 6 16.617188 7.105469 18.375 8.632813 19.308594 C 7.363281 20.242188 6 21.710938 6 24 C 6 25.527344 6.460938 26.714844 7.109375 27.621094 C 7.902344 27.226563 8.796875 27 9.75 27 C 10.582031 27 11.417969 27.136719 12.21875 27.402344 C 12.953125 27.136719 13.726563 27 14.5 27 C 15.359375 27 16.210938 27.160156 17 27.472656 C 17.789063 27.160156 18.640625 27 19.5 27 C 20.359375 27 21.210938 27.160156 22 27.472656 C 22.789063 27.160156 23.640625 27 24.5 27 C 25.359375 27 26.210938 27.160156 27 27.472656 C 27.789063 27.160156 28.640625 27 29.5 27 C 30.359375 27 31.210938 27.160156 32 27.472656 C 32.789063 27.160156 33.640625 27 34.5 27 C 35.273438 27 36.046875 27.136719 36.78125 27.402344 C 37.578125 27.136719 38.417969 27 39.25 27 C 40.5625 27 41.769531 27.429688 42.738281 28.140625 C 42.816406 28.054688 42.910156 27.9375 43.019531 27.777344 C 43.996094 26.351563 44 24.882813 44 24.25 C 44 21.117188 42.742188 19.292969 41.308594 18.464844 C 41.921875 16.59375 42 14.109375 42 13 C 42 6.316406 37.144531 2 29.625 2 Z M 17.5 16 C 18.882813 16 20 17.117188 20 18.5 C 20 19.882813 18.882813 21 17.5 21 C 16.117188 21 15 19.882813 15 18.5 C 15 17.117188 16.117188 16 17.5 16 Z M 33.5 16 C 34.882813 16 36 17.117188 36 18.5 C 36 19.882813 34.882813 21 33.5 21 C 32.117188 21 31 19.882813 31 18.5 C 31 17.117188 32.117188 16 33.5 16 Z M 18 17 C 17.449219 17 17 17.449219 17 18 C 17 18.550781 17.449219 19 18 19 C 18.550781 19 19 18.550781 19 18 C 19 17.449219 18.550781 17 18 17 Z M 34 17 C 33.449219 17 33 17.449219 33 18 C 33 18.550781 33.449219 19 34 19 C 34.550781 19 35 18.550781 35 18 C 35 17.449219 34.550781 17 34 17 Z M 23 21 L 28 21 C 28.550781 21 29 21.449219 29 22 C 29 23.65625 27.65625 25 26 25 L 25 25 C 23.34375 25 22 23.65625 22 22 C 22 21.449219 22.449219 21 23 21 Z M 9.75 29 C 7.683594 29 6 30.570313 6 32.5 C 6 32.589844 6.011719 32.679688 6.035156 32.765625 L 10.035156 47.265625 C 10.15625 47.699219 10.550781 48 11 48 L 38 48 C 38.449219 48 38.84375 47.699219 38.964844 47.265625 L 42.964844 32.765625 C 42.988281 32.679688 43 32.589844 43 32.5 C 43 30.570313 41.316406 29 39.25 29 C 38.332031 29 37.476563 29.222656 36.75 29.566406 C 36.082031 29.214844 35.316406 29 34.5 29 C 33.582031 29 32.71875 29.257813 32 29.695313 C 31.28125 29.257813 30.417969 29 29.5 29 C 28.582031 29 27.71875 29.257813 27 29.695313 C 26.28125 29.257813 25.417969 29 24.5 29 C 23.582031 29 22.71875 29.257813 22 29.695313 C 21.28125 29.257813 20.417969 29 19.5 29 C 18.582031 29 17.71875 29.257813 17 29.695313 C 16.28125 29.257813 15.417969 29 14.5 29 C 13.683594 29 12.917969 29.214844 12.25 29.566406 C 11.523438 29.222656 10.667969 29 9.75 29 Z M 9.75 31 C 11.066406 31 11.890625 31.5625 12.15625 31.886719 L 14.695313 46 L 11.761719 46 L 8.007813 32.386719 C 8.078125 31.621094 8.847656 31 9.75 31 Z M 19.5 31 C 20.703125 31 21.742188 31.761719 22 32.625 C 21.992188 32.625 22.46875 46 22.46875 46 L 18.640625 46 L 17.152344 32.378906 C 17.492188 31.625 18.414063 31 19.5 31 Z M 29.5 31 C 30.59375 31 31.515625 31.628906 31.855469 32.390625 L 30.410156 46 L 26.53125 46 C 26.53125 46 27.007813 32.625 27 32.625 C 27.253906 31.761719 28.289063 31 29.5 31 Z M 39.25 31 C 40.152344 31 40.921875 31.621094 40.996094 32.386719 L 37.238281 46 L 34.304688 46 L 36.839844 31.886719 C 37.105469 31.5625 37.933594 31 39.25 31 Z" fill="#FCECB2" />
</svg>